<mxfile host="app.diagrams.net" modified="2021-06-18T06:55:52.102Z" agent="5.0 (Windows NT 10.0; Win64; x64) AppleWebKit/537.36 (KHTML, like Gecko) Chrome/91.0.4472.77 Safari/537.36" etag="E-w-eAyXm423yyTxhNg_" version="14.7.9" type="github">
  <diagram id="clF8JfVPP5VjIg8GsH7U" name="第 1 页">
    <mxGraphModel dx="796" dy="1108" grid="1" gridSize="10" guides="1" tooltips="1" connect="1" arrows="1" fold="1" page="1" pageScale="1" pageWidth="1654" pageHeight="2336" background="none" math="0" shadow="0">
      <root>
        <mxCell id="0" />
        <mxCell id="1" parent="0" />
        <mxCell id="XA1P6dd8JG6inwG9xLOR-65" style="edgeStyle=orthogonalEdgeStyle;orthogonalLoop=1;jettySize=auto;html=1;entryX=0;entryY=0.5;entryDx=0;entryDy=0;" edge="1" parent="1" source="XA1P6dd8JG6inwG9xLOR-1" target="XA1P6dd8JG6inwG9xLOR-8">
          <mxGeometry relative="1" as="geometry">
            <Array as="points">
              <mxPoint x="880" y="210" />
              <mxPoint x="880" y="210" />
            </Array>
          </mxGeometry>
        </mxCell>
        <mxCell id="XA1P6dd8JG6inwG9xLOR-66" style="edgeStyle=orthogonalEdgeStyle;orthogonalLoop=1;jettySize=auto;html=1;" edge="1" parent="1" source="XA1P6dd8JG6inwG9xLOR-1" target="XA1P6dd8JG6inwG9xLOR-7">
          <mxGeometry relative="1" as="geometry" />
        </mxCell>
        <mxCell id="XA1P6dd8JG6inwG9xLOR-67" style="edgeStyle=orthogonalEdgeStyle;orthogonalLoop=1;jettySize=auto;html=1;" edge="1" parent="1" source="XA1P6dd8JG6inwG9xLOR-1" target="XA1P6dd8JG6inwG9xLOR-10">
          <mxGeometry relative="1" as="geometry" />
        </mxCell>
        <mxCell id="XA1P6dd8JG6inwG9xLOR-1" value="Resource&lt;br&gt;Refresh&lt;br&gt;Center" style="ellipse;whiteSpace=wrap;html=1;aspect=fixed;fillColor=#dae8fc;strokeColor=#6c8ebf;shadow=0;fontStyle=1" vertex="1" parent="1">
          <mxGeometry x="650" y="170" width="80" height="80" as="geometry" />
        </mxCell>
        <mxCell id="XA1P6dd8JG6inwG9xLOR-35" style="edgeStyle=orthogonalEdgeStyle;orthogonalLoop=1;jettySize=auto;html=1;entryX=1;entryY=0.5;entryDx=0;entryDy=0;" edge="1" parent="1" source="XA1P6dd8JG6inwG9xLOR-3" target="XA1P6dd8JG6inwG9xLOR-29">
          <mxGeometry relative="1" as="geometry" />
        </mxCell>
        <mxCell id="XA1P6dd8JG6inwG9xLOR-37" style="edgeStyle=orthogonalEdgeStyle;orthogonalLoop=1;jettySize=auto;html=1;" edge="1" parent="1" source="XA1P6dd8JG6inwG9xLOR-3" target="XA1P6dd8JG6inwG9xLOR-32">
          <mxGeometry relative="1" as="geometry" />
        </mxCell>
        <mxCell id="XA1P6dd8JG6inwG9xLOR-40" style="edgeStyle=orthogonalEdgeStyle;orthogonalLoop=1;jettySize=auto;html=1;entryX=1;entryY=0.5;entryDx=0;entryDy=0;" edge="1" parent="1" source="XA1P6dd8JG6inwG9xLOR-3" target="XA1P6dd8JG6inwG9xLOR-33">
          <mxGeometry relative="1" as="geometry" />
        </mxCell>
        <mxCell id="XA1P6dd8JG6inwG9xLOR-41" style="edgeStyle=orthogonalEdgeStyle;orthogonalLoop=1;jettySize=auto;html=1;entryX=1;entryY=0.5;entryDx=0;entryDy=0;" edge="1" parent="1" source="XA1P6dd8JG6inwG9xLOR-3" target="XA1P6dd8JG6inwG9xLOR-34">
          <mxGeometry relative="1" as="geometry" />
        </mxCell>
        <mxCell id="XA1P6dd8JG6inwG9xLOR-42" style="edgeStyle=orthogonalEdgeStyle;orthogonalLoop=1;jettySize=auto;html=1;" edge="1" parent="1" source="XA1P6dd8JG6inwG9xLOR-3" target="XA1P6dd8JG6inwG9xLOR-1">
          <mxGeometry relative="1" as="geometry" />
        </mxCell>
        <mxCell id="XA1P6dd8JG6inwG9xLOR-3" value="Player 1" style="rounded=1;whiteSpace=wrap;html=1;fillColor=#d5e8d4;strokeColor=#82b366;" vertex="1" parent="1">
          <mxGeometry x="520" y="170" width="80" height="20" as="geometry" />
        </mxCell>
        <mxCell id="XA1P6dd8JG6inwG9xLOR-43" style="edgeStyle=orthogonalEdgeStyle;orthogonalLoop=1;jettySize=auto;html=1;entryX=0;entryY=0.5;entryDx=0;entryDy=0;" edge="1" parent="1" source="XA1P6dd8JG6inwG9xLOR-4" target="XA1P6dd8JG6inwG9xLOR-1">
          <mxGeometry relative="1" as="geometry" />
        </mxCell>
        <mxCell id="XA1P6dd8JG6inwG9xLOR-4" value="Player 2" style="rounded=1;whiteSpace=wrap;html=1;fillColor=#d5e8d4;strokeColor=#82b366;gradientColor=#ffffff;" vertex="1" parent="1">
          <mxGeometry x="520" y="200" width="80" height="20" as="geometry" />
        </mxCell>
        <mxCell id="XA1P6dd8JG6inwG9xLOR-44" style="edgeStyle=orthogonalEdgeStyle;orthogonalLoop=1;jettySize=auto;html=1;" edge="1" parent="1" source="XA1P6dd8JG6inwG9xLOR-6" target="XA1P6dd8JG6inwG9xLOR-1">
          <mxGeometry relative="1" as="geometry" />
        </mxCell>
        <mxCell id="XA1P6dd8JG6inwG9xLOR-6" value="Player ..." style="rounded=1;whiteSpace=wrap;html=1;fillColor=#d5e8d4;strokeColor=#82b366;gradientColor=#ffffff;" vertex="1" parent="1">
          <mxGeometry x="520" y="230" width="80" height="20" as="geometry" />
        </mxCell>
        <mxCell id="XA1P6dd8JG6inwG9xLOR-7" value="ResourceRefresh Obj 1" style="rounded=0;whiteSpace=wrap;html=1;fillColor=#fff2cc;strokeColor=#d6b656;fontStyle=1" vertex="1" parent="1">
          <mxGeometry x="920" y="170" width="150" height="20" as="geometry" />
        </mxCell>
        <mxCell id="XA1P6dd8JG6inwG9xLOR-8" value="ResourceRefresh Obj 2" style="rounded=0;whiteSpace=wrap;html=1;fillColor=#fff2cc;strokeColor=#d6b656;gradientColor=#ffffff;" vertex="1" parent="1">
          <mxGeometry x="920" y="200" width="150" height="20" as="geometry" />
        </mxCell>
        <mxCell id="XA1P6dd8JG6inwG9xLOR-10" value="ResourceRefresh Obj ..." style="rounded=0;whiteSpace=wrap;html=1;fillColor=#fff2cc;strokeColor=#d6b656;gradientColor=#ffffff;" vertex="1" parent="1">
          <mxGeometry x="920" y="230" width="150" height="20" as="geometry" />
        </mxCell>
        <mxCell id="XA1P6dd8JG6inwG9xLOR-29" value="ResourceComp" style="rounded=0;whiteSpace=wrap;html=1;fillColor=#e1d5e7;strokeColor=#9673a6;fontStyle=1" vertex="1" parent="1">
          <mxGeometry x="230" y="110" width="120" height="60" as="geometry" />
        </mxCell>
        <mxCell id="XA1P6dd8JG6inwG9xLOR-32" value="HeroComp" style="rounded=0;whiteSpace=wrap;html=1;fillColor=#e1d5e7;strokeColor=#9673a6;gradientColor=#ffffff;" vertex="1" parent="1">
          <mxGeometry x="230" y="180" width="120" height="30" as="geometry" />
        </mxCell>
        <mxCell id="XA1P6dd8JG6inwG9xLOR-33" value="PowerComp" style="rounded=0;whiteSpace=wrap;html=1;fillColor=#e1d5e7;strokeColor=#9673a6;gradientColor=#ffffff;" vertex="1" parent="1">
          <mxGeometry x="230" y="220" width="120" height="30" as="geometry" />
        </mxCell>
        <mxCell id="XA1P6dd8JG6inwG9xLOR-34" value="..." style="rounded=0;whiteSpace=wrap;html=1;fillColor=#e1d5e7;strokeColor=#9673a6;gradientColor=#ffffff;" vertex="1" parent="1">
          <mxGeometry x="230" y="260" width="120" height="30" as="geometry" />
        </mxCell>
        <UserObject label="uid" placeholders="1" name="Variable" id="XA1P6dd8JG6inwG9xLOR-60">
          <mxCell style="text;html=1;strokeColor=none;fillColor=none;align=center;verticalAlign=middle;whiteSpace=wrap;overflow=hidden;" vertex="1" parent="1">
            <mxGeometry x="730" y="185" width="80" height="20" as="geometry" />
          </mxCell>
        </UserObject>
        <mxCell id="XA1P6dd8JG6inwG9xLOR-68" value="基础结构图" style="text;strokeColor=none;fillColor=none;html=1;fontSize=24;fontStyle=1;verticalAlign=middle;align=left;shadow=0;" vertex="1" parent="1">
          <mxGeometry x="240" y="40" width="100" height="40" as="geometry" />
        </mxCell>
        <mxCell id="XA1P6dd8JG6inwG9xLOR-69" value="细节流程图" style="text;strokeColor=none;fillColor=none;html=1;fontSize=24;fontStyle=1;verticalAlign=middle;align=left;shadow=0;" vertex="1" parent="1">
          <mxGeometry x="240" y="390" width="100" height="40" as="geometry" />
        </mxCell>
        <mxCell id="XA1P6dd8JG6inwG9xLOR-70" value="资源刷新" style="text;strokeColor=none;fillColor=none;html=1;fontSize=24;fontStyle=1;verticalAlign=middle;align=left;shadow=0;" vertex="1" parent="1">
          <mxGeometry x="290" y="450" width="100" height="40" as="geometry" />
        </mxCell>
        <mxCell id="XA1P6dd8JG6inwG9xLOR-72" value="资源获得" style="text;strokeColor=none;fillColor=none;html=1;fontSize=24;fontStyle=1;verticalAlign=middle;align=left;shadow=0;" vertex="1" parent="1">
          <mxGeometry x="280" y="1200" width="100" height="40" as="geometry" />
        </mxCell>
      </root>
    </mxGraphModel>
  </diagram>
</mxfile>
